<svg id="point" xmlns="http://www.w3.org/2000/svg" viewBox="0 0 45.13 56.38"><defs><style>.cls-1{fill:#fff}.cls-2{fill:#c43832}.cls-3{fill:#343332}.cls-4{fill:#00aa7e}.cls-5{fill:#595757}</style></defs><title>map_pin</title><path class="cls-1" d="M48.5 27.32c0 10.9-5.73 19-16 21.1-1.47.3-5.11 9.71-6.42 12.71-2-3-5-12.5-6.85-13C9.53 45.62 3.38 37.8 3.38 27.32a22.56 22.56 0 0 1 45.12 0z" transform="translate(-3.38 -4.76)"/><g id="logo-2" data-name="logo"><g id="symbol"><path class="cls-2" d="M30.26 27.48h-8.39a.84.84 0 0 1-.87-.84v-8.39a.84.84 0 0 1 .84-.84h8.39a.84.84 0 0 1 .84.84v8.39a.84.84 0 0 1-.84.84" transform="translate(-3.38 -4.76)"/><path class="cls-3" d="M30.26 27.72h-8.39a1.09 1.09 0 0 1-1.09-1.09v-8.38a1.09 1.09 0 0 1 1.09-1.09h8.39a1.09 1.09 0 0 1 1.09 1.09v8.39a1.09 1.09 0 0 1-1.09 1.08zm-8.39-10.06a.59.59 0 0 0-.59.59v8.39a.59.59 0 0 0 .59.59h8.39a.59.59 0 0 0 .59-.59v-8.39a.59.59 0 0 0-.59-.59h-8.39z" transform="translate(-3.38 -4.76)"/><path class="cls-4" d="M31.1 20.77h-2.52a.84.84 0 0 1-.84-.84v-2.52h2.52a.84.84 0 0 1 .84.84v2.52z" transform="translate(-3.38 -4.76)"/><path class="cls-3" d="M31.35 21h-2.77a1.09 1.09 0 0 1-1.09-1.09v-2.75h2.77a1.09 1.09 0 0 1 1.09 1.09V21zM28 17.66v2.27a.59.59 0 0 0 .59.59h2.27v-2.27a.59.59 0 0 0-.59-.59H28z" transform="translate(-3.38 -4.76)"/></g><g id="text"><path class="cls-5" d="M12.7 33.4a.67.67 0 0 0-.45-.14.83.83 0 0 0-.4.09.72.72 0 0 0-.26.23 1 1 0 0 0-.14.33 1.83 1.83 0 0 0 0 .39 1.49 1.49 0 0 0 0 .36 1 1 0 0 0 .14.31.7.7 0 0 0 .24.22.73.73 0 0 0 .36.08.72.72 0 0 0 .51-.17.78.78 0 0 0 .23-.48h.47a1.24 1.24 0 0 1-.37.77 1.17 1.17 0 0 1-.81.27 1.39 1.39 0 0 1-.54-.1 1 1 0 0 1-.4-.28 1.21 1.21 0 0 1-.28-.42 1.81 1.81 0 0 1 0-.55 2 2 0 0 1 0-.57 1.31 1.31 0 0 1 .24-.46 1.11 1.11 0 0 1 .4-.31 1.3 1.3 0 0 1 .56-.11 1.64 1.64 0 0 1 .43.05 1 1 0 0 1 .35.17.91.91 0 0 1 .25.29 1.06 1.06 0 0 1 .12.41h-.43a.67.67 0 0 0-.22-.38zM14.64 31.91v1.42a.59.59 0 0 1 .15-.21A.81.81 0 0 1 15 33a1.1 1.1 0 0 1 .24-.08h.25a1.17 1.17 0 0 1 .44.07.73.73 0 0 1 .29.2.76.76 0 0 1 .15.31 1.66 1.66 0 0 1 0 .4v1.77H16V33.8a.53.53 0 0 0-.15-.4.54.54 0 0 0-.4-.15.9.9 0 0 0-.35.06.65.65 0 0 0-.25.18.76.76 0 0 0-.15.27 1.09 1.09 0 0 0 0 .33v1.52h-.5v-3.7h.44zM19.68 35.61a.62.62 0 0 1-.32.07.38.38 0 0 1-.27-.1.42.42 0 0 1-.1-.31 1.06 1.06 0 0 1-.42.31 1.46 1.46 0 0 1-.87.05.81.81 0 0 1-.28-.13.63.63 0 0 1-.19-.23.78.78 0 0 1-.07-.35.79.79 0 0 1 .08-.37.68.68 0 0 1 .21-.24 1 1 0 0 1 .29-.14l.33-.08.34-.09h.29a.48.48 0 0 0 .2-.1.24.24 0 0 0 .1-.2.44.44 0 0 0-.05-.23.38.38 0 0 0-.14-.14.57.57 0 0 0-.19-.06h-.21a.93.93 0 0 0-.47.11.45.45 0 0 0-.2.4h-.48a1 1 0 0 1 .1-.42.79.79 0 0 1 .25-.28 1.05 1.05 0 0 1 .39-.16 1.86 1.86 0 0 1 .43 0h.36a1 1 0 0 1 .32.11.63.63 0 0 1 .23.23.73.73 0 0 1 .09.38V35a1 1 0 0 0 0 .23.11.11 0 0 0 .12.07h.14v.34zM19 34.23a.56.56 0 0 1-.22.09H18.2a1.11 1.11 0 0 0-.27.08.49.49 0 0 0-.19.15.41.41 0 0 0-.08.26.35.35 0 0 0 0 .18.36.36 0 0 0 .11.12.47.47 0 0 0 .16.07h.2a1 1 0 0 0 .37-.06.78.78 0 0 0 .25-.15.59.59 0 0 0 .15-.2.49.49 0 0 0 0-.2v-.34zM21.65 32.93v.39h-.53V35a.48.48 0 0 0 0 .12.13.13 0 0 0 0 .07h.47v.39h-.56a.43.43 0 0 1-.2-.09.37.37 0 0 1-.11-.18 1 1 0 0 1 0-.3v-1.69h-.5v-.39h.46v-.8h.44v.81h.54zM23.22 31.91v1.39a.66.66 0 0 1 .36-.3 1.28 1.28 0 0 1 .51-.1 1.21 1.21 0 0 1 .54.11 1.11 1.11 0 0 1 .38.31 1.37 1.37 0 0 1 .23.45 1.84 1.84 0 0 1 .08.54 1.89 1.89 0 0 1-.08.54 1.26 1.26 0 0 1-.23.44 1.07 1.07 0 0 1-.38.3 1.24 1.24 0 0 1-.54.11h-.22l-.24-.07a.93.93 0 0 1-.23-.13.71.71 0 0 1-.18-.2v.36h-.44v-3.75h.44zm1.59 2a1 1 0 0 0-.15-.32.73.73 0 0 0-.26-.22.78.78 0 0 0-.4-.11.73.73 0 0 0-.63.32 1 1 0 0 0-.14.33 1.58 1.58 0 0 0 0 .75.94.94 0 0 0 .15.32.76.76 0 0 0 .26.23.83.83 0 0 0 .39.09.75.75 0 0 0 .38-.09.71.71 0 0 0 .27-.21 1 1 0 0 0 .14-.33 1.78 1.78 0 0 0 0-.38 1.37 1.37 0 0 0-.01-.41zM26.1 33.72a1.25 1.25 0 0 1 .25-.45 1.18 1.18 0 0 1 .41-.3 1.51 1.51 0 0 1 1.13 0 1.19 1.19 0 0 1 .41.3 1.26 1.26 0 0 1 .25.45 1.81 1.81 0 0 1 .08.55 1.78 1.78 0 0 1-.08.55 1.27 1.27 0 0 1-.25.44 1.17 1.17 0 0 1-.41.3 1.54 1.54 0 0 1-1.13 0 1.16 1.16 0 0 1-.41-.3 1.26 1.26 0 0 1-.25-.44 1.77 1.77 0 0 1-.1-.54 1.79 1.79 0 0 1 .1-.56zm.45 1a.91.91 0 0 0 .18.32.77.77 0 0 0 .27.19.8.8 0 0 0 .91-.23.92.92 0 0 0 .18-.32 1.48 1.48 0 0 0 0-.87 1 1 0 0 0-.18-.32.78.78 0 0 0-.27-.2.81.81 0 0 0-.65 0 .76.76 0 0 0-.27.2.93.93 0 0 0-.18.32 1.49 1.49 0 0 0 .01.9zM29.14 32.93h.56l.64.94.66-.94h.53l-.92 1.24 1 1.45h-.51l-.75-1.11-.75 1.11h-.53l1-1.41zM33 35v.58h-.55V35H33zM34.14 32.45v-.54h.44v.54h-.44zm.44.48v2.69h-.44v-2.69h.44zM36.1 32.93v.43a.93.93 0 0 1 .9-.49 1.18 1.18 0 0 1 .44.07.73.73 0 0 1 .29.2.76.76 0 0 1 .15.31 1.68 1.68 0 0 1 0 .4v1.77h-.42V33.8a.5.5 0 0 0-.55-.54.89.89 0 0 0-.35.06.65.65 0 0 0-.25.18.75.75 0 0 0-.15.27 1.08 1.08 0 0 0 0 .33v1.52h-.48v-2.69h.42zM40.49 33.4a.67.67 0 0 0-.49-.14.83.83 0 0 0-.4.09.72.72 0 0 0-.26.23 1 1 0 0 0-.14.33 1.85 1.85 0 0 0 0 .39 1.47 1.47 0 0 0 0 .36 1 1 0 0 0 .14.31.7.7 0 0 0 .24.22.73.73 0 0 0 .36.08.72.72 0 0 0 .51-.17.77.77 0 0 0 .23-.48h.45a1.24 1.24 0 0 1-.37.77 1.17 1.17 0 0 1-.81.27 1.39 1.39 0 0 1-.54-.1 1 1 0 0 1-.4-.28 1.21 1.21 0 0 1-.24-.43 1.82 1.82 0 0 1-.08-.55 2 2 0 0 1 .08-.56 1.31 1.31 0 0 1 .24-.46 1.11 1.11 0 0 1 .4-.31 1.3 1.3 0 0 1 .59-.1 1.63 1.63 0 0 1 .43.05 1 1 0 0 1 .35.17.92.92 0 0 1 .25.29 1.06 1.06 0 0 1 .12.41h-.44a.68.68 0 0 0-.22-.39z" transform="translate(-3.38 -4.76)"/></g></g></svg>