<?xml version="1.0" encoding="UTF-8"?>
<svg width="28px" height="29px" viewBox="0 0 28 29" version="1.1" xmlns="http://www.w3.org/2000/svg" xmlns:xlink="http://www.w3.org/1999/xlink">
    <!-- Generator: Sketch 48.2 (47327) - http://www.bohemiancoding.com/sketch -->
    <title>icon_chatbox-white</title>
    <desc>Created with Sketch.</desc>
    <defs>
        <polygon id="path-1" points="14 28.6668667 0 28.6668667 0 0.666866667 14 0.666866667 28 0.666866667 28 28.6668667"></polygon>
    </defs>
    <g id="header_symbol" stroke="none" stroke-width="1" fill="none" fill-rule="evenodd" transform="translate(-17.000000, -15.000000)">
        <g id="header">
            <g id="icon_chatbox-white" transform="translate(17.000000, 15.000000)">
                <path d="M16.4165333,8.13573333 L16.4352,2.92106667 L3.0512,2.92106667 C2.57053333,2.92106667 2.1812,3.3104 2.1812,3.7904 L2.1812,24.9204 C2.1812,25.4004 2.57053333,25.7904 3.0512,25.7904 L24.2412,25.7904 C24.7218667,25.7904 25.1112,25.4010667 25.1112,24.9210667 L25.1238667,11.6737333 L19.4765333,11.6737333 C17.8032,11.5664 16.3798667,9.88773333 16.4165333,8.13573333" id="Fill-1" fill="#FFFFFF"></path>
                <mask id="mask-2" fill="white">
                    <use xlink:href="#path-1"></use>
                </mask>
                <g id="Clip-4"></g>
                <path d="M26.1512667,9.38086667 L20.2532667,9.38086667 C19.4112667,9.3802 18.7286,8.69753333 18.7279333,7.85553333 L18.7279333,1.96086667 L24.6212667,1.96086667 C25.4652667,1.96086667 26.1506,2.64486667 26.1512667,3.48953333 L26.1512667,9.38086667 Z M26.1512667,25.2875333 C26.1492667,26.1308667 25.4646,26.8142 24.6212667,26.8142 L2.8226,26.8142 C1.97993333,26.8135333 1.2966,26.1308667 1.29593333,25.2875333 L1.29593333,3.4862 C1.29726667,2.6442 1.9806,1.96153333 2.8226,1.96086667 L17.4332667,1.96086667 L17.4332667,7.85553333 C17.4346,9.4122 18.6959333,10.6748667 20.2532667,10.6768667 L26.1512667,10.6768667 L26.1512667,25.2875333 Z M24.6212667,0.666866667 L17.4332667,0.666866667 L2.8226,0.666866667 C1.26526667,0.667533333 0.0026,1.92886667 -6.66666667e-05,3.4862 L-6.66666667e-05,25.2888667 C0.00193333333,26.8468667 1.2646,28.1095333 2.8226,28.1102 L24.6212667,28.1102 C26.1792667,28.1095333 27.4432667,26.8462 27.4452667,25.2875333 L27.4452667,10.6768667 L27.4452667,3.48953333 L27.4452667,3.4862 C27.4426,1.9282 26.1792667,0.666866667 24.6212667,0.666866667 Z" id="Fill-3" fill="#FFFFFF" mask="url(#mask-2)"></path>
            </g>
        </g>
    </g>
</svg>