<?xml version="1.0" encoding="UTF-8"?>
<svg width="27px" height="20px" viewBox="0 0 27 20" version="1.1" xmlns="http://www.w3.org/2000/svg" xmlns:xlink="http://www.w3.org/1999/xlink">
    <!-- Generator: Sketch 48.2 (47327) - http://www.bohemiancoding.com/sketch -->
    <title>icon_mail</title>
    <desc>Created with Sketch.</desc>
    <defs></defs>
    <g id="bottomNav_pc" stroke="none" stroke-width="1" fill="none" fill-rule="evenodd" transform="translate(-621.000000, -20.000000)">
        <g fill="#C3504F" id="icon_mail">
            <path d="M647.973633,22.8046875 C647.991211,22.8398439 648,22.8749998 648,22.9101562 L648,36.515625 C648,37.2187535 647.824221,37.8867156 647.472656,38.5195312 C647.121092,39.1523469 646.593754,39.46875 645.890625,39.46875 L623.953125,39.46875 C623.249996,39.46875 622.582034,39.1523469 621.949219,38.5195312 C621.316403,37.8867156 621,37.2187535 621,36.515625 L621,22.9101562 C621,22.8749998 621.008789,22.8398439 621.026367,22.8046875 C620.991211,22.68164 620.991211,22.5629889 621.026367,22.4487305 C621.061524,22.3344721 621.123046,22.2246099 621.210938,22.1191406 C621.228516,22.1015624 621.246094,22.07959 621.263672,22.0532227 C621.28125,22.0268553 621.307617,22.0048829 621.342773,21.9873047 C621.606447,21.6357404 621.979978,21.3676767 622.463379,21.1831055 C622.94678,20.9985342 623.443357,20.90625 623.953125,20.90625 L645.890625,20.90625 C646.453128,20.90625 646.90576,21.0249012 647.248535,21.262207 C647.59131,21.4995129 647.815429,21.8554664 647.920898,22.3300781 C647.956055,22.400391 647.978027,22.4750973 647.986816,22.5541992 C647.995606,22.6333012 647.991211,22.7167964 647.973633,22.8046875 Z M623.557617,22.59375 C623.416991,22.59375 623.276368,22.602539 623.135742,22.6201172 L634.5,31.6904297 L645.890625,22.59375 L623.557617,22.59375 Z M645.890625,37.78125 C646.119142,37.78125 646.246582,37.6274429 646.272949,37.3198242 C646.299317,37.0122055 646.3125,36.7441418 646.3125,36.515625 L646.3125,24.4394531 L635.053711,33.4306641 C634.96582,33.5009769 634.87793,33.5537108 634.790039,33.5888672 C634.702148,33.6240236 634.605469,33.6416016 634.5,33.6416016 C634.394531,33.6416016 634.297852,33.6240236 634.209961,33.5888672 C634.12207,33.5537108 634.03418,33.5009769 633.946289,33.4306641 L622.6875,24.4394531 L622.6875,36.515625 C622.6875,36.7441418 622.841307,37.0122055 623.148926,37.3198242 C623.456545,37.6274429 623.724608,37.78125 623.953125,37.78125 L645.890625,37.78125 Z"></path>
        </g>
    </g>
</svg>