<?xml version="1.0" encoding="UTF-8"?>
<svg width="25px" height="26px" viewBox="0 0 25 26" version="1.1" xmlns="http://www.w3.org/2000/svg" xmlns:xlink="http://www.w3.org/1999/xlink">
    <!-- Generator: Sketch 48.2 (47327) - http://www.bohemiancoding.com/sketch -->
    <title>icon_externalLink</title>
    <desc>Created with Sketch.</desc>
    <defs></defs>
    <g id="brand_pc" stroke="none" stroke-width="1" fill="none" fill-rule="evenodd" transform="translate(-1050.000000, -8825.000000)">
        <g id="sec_member" transform="translate(0.000000, 8122.000000)" fill="#C3504F">
            <g id="heading" transform="translate(165.000000, 0.000000)">
                <g id="btn" transform="translate(0.000000, 618.000000)">
                    <path d="M898.012695,101.700195 L900.869141,98.84375 L885.78125,98.84375 C885.56966,98.84375 885.386557,98.7664396 885.231934,98.6118164 C885.07731,98.4571932 885,98.2740896 885,98.0625 C885,97.8346343 885.07731,97.6474617 885.231934,97.5009766 C885.386557,97.3544915 885.56966,97.28125 885.78125,97.28125 L900.820312,97.28125 L898.012695,94.4492188 C897.849934,94.3027336 897.768555,94.11963 897.768555,93.8999023 C897.768555,93.6801747 897.849934,93.497071 898.012695,93.3505859 C898.15918,93.1878247 898.338215,93.1064453 898.549805,93.1064453 C898.761394,93.1064453 898.948567,93.1878247 899.111328,93.3505859 L903.725586,98.0869141 L899.111328,102.823242 C899.029948,102.888347 898.94043,102.941243 898.842773,102.981934 C898.745117,103.022624 898.647461,103.042969 898.549805,103.042969 C898.452148,103.042969 898.354493,103.022624 898.256836,102.981934 C898.159179,102.941243 898.0778,102.888347 898.012695,102.823242 C897.849934,102.660481 897.768555,102.473308 897.768555,102.261719 C897.768555,102.050129 897.849934,101.862957 898.012695,101.700195 Z M908.4375,85.5625 C908.876955,85.5625 909.247232,85.7130519 909.54834,86.0141602 C909.849448,86.3152684 910,86.6855447 910,87.125 L910,109 C910,109.439455 909.849448,109.809732 909.54834,110.11084 C909.247232,110.411948 908.876955,110.5625 908.4375,110.5625 L894.375,110.5625 C893.951821,110.5625 893.585614,110.411948 893.276367,110.11084 C892.967121,109.809732 892.8125,109.439455 892.8125,109 L892.8125,101.944336 L894.399414,101.944336 L894.399414,108.047852 C894.399414,108.30827 894.488931,108.532063 894.667969,108.719238 C894.847006,108.906414 895.06673,109 895.327148,109 L907.485352,109 C907.74577,109 907.969563,108.906414 908.156738,108.719238 C908.343914,108.532063 908.4375,108.30827 908.4375,108.047852 L908.413086,88.0771484 C908.413086,87.8167305 908.3195,87.5929371 908.132324,87.4057617 C907.945149,87.2185863 907.721355,87.125 907.460938,87.125 L895.327148,87.125 C895.06673,87.125 894.847006,87.2185863 894.667969,87.4057617 C894.488931,87.5929371 894.399414,87.8167305 894.399414,88.0771484 L894.399414,94.15625 L892.8125,94.15625 L892.8125,87.125 C892.8125,86.6855447 892.967121,86.3152684 893.276367,86.0141602 C893.585614,85.7130519 893.951821,85.5625 894.375,85.5625 L908.4375,85.5625 Z" id="icon_externalLink"></path>
                </g>
            </g>
        </g>
    </g>
</svg>