<?xml version="1.0" encoding="UTF-8"?>
<svg width="27px" height="55px" viewBox="0 0 27 55" version="1.1" xmlns="http://www.w3.org/2000/svg" xmlns:xlink="http://www.w3.org/1999/xlink">
    <!-- Generator: Sketch 48.2 (47327) - http://www.bohemiancoding.com/sketch -->
    <title>pagetop</title>
    <desc>Created with Sketch.</desc>
    <defs></defs>
    <g id="brand_pc" stroke="none" stroke-width="1" fill="none" fill-rule="evenodd" transform="translate(-1229.000000, -9666.000000)">
        <g id="icon_pagetop" transform="translate(1229.000000, 9662.000000)" fill="#C3504F">
            <g id="pagetop" transform="translate(0.000000, 4.000000)">
                <path d="M14.0999997,1.94247974 L14.0999997,30.2643663 C14.0999997,30.5957372 13.8313705,30.8643663 13.4999996,30.8643663 C13.1686288,30.8643663 12.8999996,30.5957372 12.8999996,30.2643663 L12.8999996,1.95901849 L5.8790717,8.84863281 C5.76653412,8.95931045 5.63149104,9.01464844 5.47393843,9.01464844 C5.31638581,9.01464844 5.18134273,8.95931045 5.06880515,8.84863281 C5.01253636,8.79329399 4.9703354,8.73242221 4.942201,8.66601562 C4.91406661,8.59960904 4.89999962,8.52766966 4.89999962,8.45019531 C4.89999962,8.38378873 4.91406661,8.31461625 4.942201,8.24267578 C4.9703354,8.17073532 5.01253636,8.10709663 5.06880515,8.05175781 L13.1039485,0.149414062 C13.2164861,0.0498041895 13.3515291,0 13.5090817,0 C13.6666344,0 13.8016774,0.0498041895 13.914215,0.149414062 L21.8311945,7.95214844 C21.9437321,8.06282607 22,8.19563725 22,8.35058594 C22,8.50553463 21.9437321,8.6383458 21.8311945,8.74902344 C21.7186569,8.85970107 21.5836138,8.91503906 21.4260612,8.91503906 C21.2685086,8.91503906 21.1334655,8.85970107 21.0209279,8.74902344 L14.0999997,1.94247974 Z" id="Rectangle-11" transform="translate(13.450000, 15.432183) scale(-1, 1) translate(-13.450000, -15.432183) "></path>
                <path d="M3.71191406,54 L3.71191406,44.9560547 L0.123046875,44.9560547 L0.123046875,43.8828125 L8.73632812,43.8828125 L8.73632812,44.9560547 L5.14746094,44.9560547 L5.14746094,54 L3.71191406,54 Z M13.76301,54.2529297 C12.3593571,54.2529297 11.2302994,53.7664437 10.375803,52.793457 C9.5213065,51.8204704 9.09406468,50.5341877 9.09406468,48.9345703 C9.09406468,47.3258383 9.52358513,46.0395556 10.3826389,45.0756836 C11.2416927,44.1118116 12.3889794,43.6298828 13.8245334,43.6298828 C15.2555302,43.6298828 16.4016776,44.1106723 17.26301,45.0722656 C18.1243424,46.033859 18.5550022,47.3167238 18.5550022,48.9208984 C18.5550022,50.5569743 18.1243424,51.8546502 17.26301,52.8139648 C16.4016776,53.7732795 15.2350226,54.2529297 13.76301,54.2529297 Z M13.7835178,53.1796875 C14.8180282,53.1796875 15.6178249,52.8071326 16.1829319,52.0620117 C16.7480389,51.3168908 17.0305881,50.2653063 17.0305881,48.9072266 C17.0305881,47.5901627 16.7468996,46.5602251 16.1795139,45.8173828 C15.6121283,45.0745406 14.8271426,44.703125 13.8245334,44.703125 C12.8173669,44.703125 12.031242,45.0756799 11.466135,45.8208008 C10.901028,46.5659217 10.6184787,47.6015559 10.6184787,48.9277344 C10.6184787,50.2493556 10.8987494,51.2884077 11.4592991,52.0449219 C12.0198487,52.8014361 12.7945806,53.1796875 13.7835178,53.1796875 Z M20.0953559,54 L20.0953559,43.8828125 L22.8502387,43.8828125 C24.071599,43.8828125 24.9488689,44.0890279 25.4820747,44.5014648 C26.0152805,44.9139018 26.2818794,45.5917922 26.2818794,46.5351562 C26.2818794,47.6106825 25.9172997,48.453773 25.1881294,49.0644531 C24.4589591,49.6751333 23.4472504,49.9804688 22.1529731,49.9804688 L21.5172309,49.9804688 L21.5172309,54 L20.0953559,54 Z M21.5172309,48.8935547 L22.0982856,48.8935547 C22.9505034,48.8935547 23.6090255,48.6975931 24.0738716,48.3056641 C24.5387176,47.913735 24.7711372,47.3600296 24.7711372,46.6445312 C24.7711372,46.0384084 24.5888473,45.60547 24.2242622,45.3457031 C23.859677,45.0859362 23.2512847,44.9560547 22.3990669,44.9560547 L21.5172309,44.9560547 L21.5172309,48.8935547 Z" id="TOP"></path>
            </g>
        </g>
    </g>
</svg>